<svg id="svg" version="1.1" xmlns="http://www.w3.org/2000/svg" xmlns:xlink="http://www.w3.org/1999/xlink" width="400" height="400" viewBox="0, 0, 400,400"><g id="svgg"><path id="path0" d="M79.088 0.293 C 77.504 0.377,76.474 0.596,76.611 0.819 C 76.749 1.041,76.014 1.200,74.847 1.200 C 73.747 1.200,72.736 1.380,72.600 1.600 C 72.464 1.820,71.643 2.000,70.776 2.000 C 69.909 2.000,69.200 2.160,69.200 2.356 C 69.200 2.552,68.615 2.814,67.900 2.937 C 64.819 3.470,64.021 3.711,64.228 4.045 C 64.348 4.240,63.817 4.400,63.047 4.400 C 62.277 4.400,61.536 4.580,61.400 4.800 C 61.264 5.020,60.803 5.200,60.376 5.200 C 59.949 5.200,59.600 5.380,59.600 5.600 C 59.600 5.820,59.150 6.000,58.600 6.000 C 58.050 6.000,57.600 6.180,57.600 6.400 C 57.600 6.620,57.240 6.800,56.800 6.800 C 56.360 6.800,56.000 6.980,56.000 7.200 C 56.000 7.420,55.640 7.600,55.200 7.600 C 54.760 7.600,54.400 7.780,54.400 8.000 C 54.400 8.220,53.965 8.400,53.433 8.400 C 52.002 8.400,51.204 8.803,51.168 9.543 C 51.151 9.905,51.051 9.990,50.946 9.732 C 50.774 9.312,48.730 10.057,48.000 10.805 C 47.890 10.918,46.945 11.442,45.900 11.968 C 44.855 12.495,44.000 13.077,44.000 13.263 C 44.000 13.448,43.730 13.600,43.400 13.600 C 43.070 13.600,42.800 13.780,42.800 14.000 C 42.800 14.220,42.512 14.400,42.160 14.400 C 41.809 14.400,41.017 14.940,40.400 15.600 C 39.783 16.260,39.063 16.800,38.800 16.800 C 38.537 16.800,37.817 17.340,37.200 18.000 C 36.583 18.660,35.867 19.200,35.608 19.200 C 35.349 19.200,34.476 19.875,33.669 20.700 C 32.861 21.525,31.711 22.452,31.114 22.760 C 30.516 23.068,30.122 23.473,30.237 23.660 C 30.353 23.847,30.275 24.000,30.065 24.000 C 29.566 24.000,24.000 29.566,24.000 30.065 C 24.000 30.275,23.847 30.353,23.660 30.237 C 23.473 30.122,23.068 30.516,22.760 31.114 C 22.452 31.711,21.525 32.861,20.700 33.669 C 19.875 34.476,19.200 35.349,19.200 35.608 C 19.200 35.867,18.660 36.583,18.000 37.200 C 17.340 37.817,16.800 38.537,16.800 38.800 C 16.800 39.063,16.260 39.783,15.600 40.400 C 14.940 41.017,14.400 41.809,14.400 42.160 C 14.400 42.512,14.220 42.800,14.000 42.800 C 13.780 42.800,13.600 43.070,13.600 43.400 C 13.600 43.730,13.448 44.000,13.263 44.000 C 13.077 44.000,12.495 44.855,11.968 45.900 C 11.442 46.945,10.918 47.890,10.805 48.000 C 10.112 48.675,8.400 52.489,8.400 53.359 C 8.400 53.932,8.220 54.400,8.000 54.400 C 7.780 54.400,7.600 54.760,7.600 55.200 C 7.600 55.640,7.420 56.000,7.200 56.000 C 6.980 56.000,6.800 56.360,6.800 56.800 C 6.800 57.240,6.620 57.600,6.400 57.600 C 6.180 57.600,6.000 58.050,6.000 58.600 C 6.000 59.150,5.820 59.600,5.600 59.600 C 5.380 59.600,5.200 59.949,5.200 60.376 C 5.200 60.803,5.020 61.264,4.800 61.400 C 4.580 61.536,4.400 62.277,4.400 63.047 C 4.400 63.817,4.240 64.348,4.045 64.228 C 3.711 64.021,3.470 64.819,2.937 67.900 C 2.814 68.615,2.552 69.200,2.356 69.200 C 2.160 69.200,2.000 69.909,2.000 70.776 C 2.000 71.643,1.820 72.464,1.600 72.600 C 1.380 72.736,1.200 73.747,1.200 74.847 C 1.200 75.947,1.038 76.747,0.841 76.625 C 0.046 76.134,-0.046 91.684,0.074 205.167 C 0.174 299.255,0.302 323.367,0.700 323.500 C 1.010 323.603,1.200 324.416,1.200 325.633 C 1.200 326.715,1.380 327.600,1.600 327.600 C 1.820 327.600,2.000 328.320,2.000 329.200 C 2.000 330.080,2.180 330.800,2.400 330.800 C 2.620 330.800,2.800 331.192,2.800 331.672 C 2.800 332.592,3.460 334.928,4.049 336.095 C 4.242 336.477,4.400 337.141,4.400 337.571 C 4.400 338.001,4.580 338.464,4.800 338.600 C 5.020 338.736,5.200 339.197,5.200 339.624 C 5.200 340.051,5.380 340.400,5.600 340.400 C 5.820 340.400,6.000 340.850,6.000 341.400 C 6.000 341.950,6.180 342.400,6.400 342.400 C 6.620 342.400,6.800 342.760,6.800 343.200 C 6.800 343.640,6.980 344.000,7.200 344.000 C 7.420 344.000,7.600 344.360,7.600 344.800 C 7.600 345.240,7.780 345.600,8.000 345.600 C 8.220 345.600,8.400 346.068,8.400 346.641 C 8.400 347.511,10.112 351.325,10.805 352.000 C 10.918 352.110,11.442 353.055,11.968 354.100 C 12.495 355.145,13.034 356.000,13.165 356.000 C 13.297 356.000,13.662 356.585,13.975 357.300 C 14.289 358.015,15.053 359.077,15.673 359.660 C 16.293 360.244,16.800 360.937,16.800 361.200 C 16.800 361.463,17.340 362.183,18.000 362.800 C 18.660 363.417,19.200 364.133,19.200 364.392 C 19.200 364.651,19.920 365.554,20.800 366.400 C 21.680 367.246,22.400 368.134,22.400 368.374 C 22.400 368.924,31.102 377.600,31.654 377.600 C 31.879 377.600,32.754 378.320,33.600 379.200 C 34.446 380.080,35.349 380.800,35.608 380.800 C 35.867 380.800,36.558 381.295,37.143 381.900 C 37.729 382.505,38.457 383.054,38.761 383.119 C 39.066 383.185,39.811 383.770,40.418 384.419 C 41.025 385.069,41.809 385.600,42.160 385.600 C 42.512 385.600,42.800 385.780,42.800 386.000 C 42.800 386.220,43.070 386.400,43.400 386.400 C 43.730 386.400,44.000 386.552,44.000 386.737 C 44.000 386.923,44.855 387.505,45.900 388.032 C 46.945 388.558,47.890 389.083,48.000 389.198 C 48.663 389.888,52.477 391.600,53.354 391.600 C 53.929 391.600,54.400 391.780,54.400 392.000 C 54.400 392.220,54.760 392.400,55.200 392.400 C 55.640 392.400,56.000 392.580,56.000 392.800 C 56.000 393.020,56.360 393.200,56.800 393.200 C 57.240 393.200,57.600 393.380,57.600 393.600 C 57.600 393.820,58.050 394.000,58.600 394.000 C 59.150 394.000,59.600 394.180,59.600 394.400 C 59.600 394.620,59.949 394.800,60.376 394.800 C 60.803 394.800,61.264 394.980,61.400 395.200 C 61.536 395.420,62.177 395.600,62.824 395.600 C 63.471 395.600,64.000 395.760,64.000 395.955 C 64.000 396.290,64.888 396.542,67.900 397.063 C 68.615 397.186,69.200 397.448,69.200 397.644 C 69.200 397.840,69.920 398.000,70.800 398.000 C 71.680 398.000,72.400 398.180,72.400 398.400 C 72.400 398.620,73.401 398.800,74.624 398.800 C 75.847 398.800,76.753 398.953,76.637 399.141 C 76.197 399.852,85.642 399.996,133.034 399.998 L 181.868 400.000 182.134 367.300 C 182.461 327.073,182.486 212.800,182.168 212.800 C 181.973 212.800,177.412 216.553,176.800 217.217 C 176.504 217.538,167.957 224.939,166.850 225.833 C 166.327 226.255,165.517 226.960,165.050 227.401 C 164.582 227.841,163.035 229.191,161.610 230.401 C 160.186 231.610,158.296 233.255,157.410 234.056 C 156.525 234.857,155.170 236.026,154.400 236.655 C 153.630 237.283,152.308 238.428,151.462 239.199 C 150.616 239.970,149.470 240.960,148.916 241.400 C 148.361 241.840,147.163 242.889,146.254 243.730 C 145.344 244.572,143.975 245.742,143.212 246.330 C 142.449 246.919,141.137 248.060,140.297 248.868 C 139.457 249.675,136.663 252.105,134.086 254.268 C 131.510 256.430,129.018 258.575,128.549 259.034 C 128.079 259.493,126.819 260.572,125.748 261.433 C 124.676 262.293,123.530 263.271,123.200 263.606 C 121.636 265.193,117.266 268.800,116.907 268.800 C 116.684 268.800,115.804 268.019,114.951 267.063 C 111.998 263.757,108.897 260.194,107.759 258.800 C 107.130 258.030,106.334 257.130,105.990 256.800 C 105.645 256.470,103.212 253.680,100.582 250.601 C 97.952 247.522,95.485 244.653,95.100 244.226 C 93.711 242.685,93.692 242.708,102.400 235.195 C 104.490 233.392,107.280 230.968,108.600 229.809 C 109.920 228.650,111.630 227.184,112.399 226.551 C 113.169 225.918,114.176 225.040,114.638 224.600 C 115.560 223.722,115.892 223.433,121.992 218.197 C 124.297 216.219,126.637 214.208,127.192 213.728 C 128.243 212.820,128.912 212.244,132.144 209.469 C 133.213 208.551,134.473 207.440,134.944 206.999 C 135.415 206.559,136.970 205.209,138.400 203.999 C 139.830 202.790,141.090 201.702,141.200 201.583 C 141.469 201.292,149.952 193.953,151.150 192.975 C 151.673 192.549,152.483 191.840,152.950 191.399 C 153.418 190.959,154.965 189.609,156.390 188.399 C 157.814 187.190,159.704 185.545,160.590 184.744 C 161.475 183.943,162.830 182.774,163.600 182.145 C 164.370 181.517,165.630 180.431,166.400 179.732 C 167.170 179.034,168.250 178.084,168.800 177.623 C 169.350 177.161,170.765 175.932,171.944 174.892 C 173.123 173.851,174.473 172.781,174.944 172.514 C 175.589 172.148,181.773 172.025,200.000 172.016 C 227.305 172.001,224.755 171.708,228.438 175.284 C 229.449 176.265,230.635 177.323,231.073 177.634 C 232.262 178.478,240.094 185.275,241.200 186.422 C 241.530 186.765,242.239 187.345,242.775 187.712 C 243.311 188.080,244.931 189.444,246.375 190.743 C 247.819 192.043,251.160 194.962,253.800 197.230 C 256.440 199.498,258.690 201.454,258.800 201.577 C 258.910 201.700,260.170 202.790,261.600 203.999 C 263.030 205.209,264.578 206.559,265.040 206.999 C 265.502 207.440,266.340 208.160,266.902 208.600 C 267.464 209.040,268.616 210.030,269.462 210.801 C 270.308 211.572,271.630 212.717,272.400 213.345 C 273.170 213.974,274.520 215.148,275.400 215.953 C 276.280 216.759,277.462 217.774,278.026 218.209 C 279.098 219.036,283.898 223.222,285.356 224.600 C 285.821 225.040,286.831 225.918,287.601 226.551 C 288.370 227.184,290.080 228.650,291.400 229.809 C 292.720 230.968,295.436 233.330,297.435 235.058 C 306.563 242.949,306.319 242.650,304.900 244.228 C 304.515 244.656,302.581 246.895,300.603 249.203 C 295.085 255.640,295.078 255.648,293.790 256.964 C 293.125 257.644,292.315 258.577,291.990 259.039 C 291.400 259.878,287.968 263.856,285.049 267.084 C 284.196 268.028,283.343 268.800,283.154 268.800 C 282.807 268.800,277.909 264.792,276.800 263.600 C 276.470 263.245,275.820 262.695,275.356 262.378 C 274.891 262.060,273.271 260.696,271.756 259.346 C 270.240 257.997,266.840 255.037,264.200 252.770 C 261.560 250.502,259.310 248.546,259.200 248.423 C 259.090 248.300,257.830 247.210,256.400 246.001 C 254.970 244.791,253.413 243.441,252.940 243.001 C 252.103 242.222,251.295 241.522,244.600 235.782 C 242.840 234.273,241.310 232.939,241.200 232.819 C 241.090 232.699,239.830 231.610,238.400 230.401 C 236.970 229.191,235.418 227.841,234.950 227.401 C 234.483 226.960,233.673 226.256,233.150 225.835 C 232.223 225.089,227.028 220.597,226.171 219.800 C 225.934 219.580,224.683 218.500,223.391 217.400 C 222.098 216.300,220.380 214.815,219.572 214.100 C 218.764 213.385,217.990 212.800,217.852 212.800 C 217.713 212.800,217.600 254.927,217.600 306.415 L 217.600 400.031 270.100 399.866 C 323.898 399.697,323.600 399.701,323.600 399.133 C 323.600 398.950,324.500 398.800,325.600 398.800 C 326.700 398.800,327.600 398.620,327.600 398.400 C 327.600 398.180,328.320 398.000,329.200 398.000 C 330.080 398.000,330.800 397.820,330.800 397.600 C 330.800 397.380,331.192 397.200,331.672 397.200 C 332.592 397.200,334.928 396.540,336.095 395.951 C 336.477 395.758,337.141 395.600,337.571 395.600 C 338.001 395.600,338.464 395.420,338.600 395.200 C 338.736 394.980,339.197 394.800,339.624 394.800 C 340.051 394.800,340.400 394.620,340.400 394.400 C 340.400 394.180,340.850 394.000,341.400 394.000 C 341.950 394.000,342.400 393.820,342.400 393.600 C 342.400 393.380,342.760 393.200,343.200 393.200 C 343.640 393.200,344.000 393.020,344.000 392.800 C 344.000 392.580,344.360 392.400,344.800 392.400 C 345.240 392.400,345.600 392.220,345.600 392.000 C 345.600 391.780,346.071 391.600,346.646 391.600 C 347.523 391.600,351.337 389.888,352.000 389.198 C 352.110 389.083,353.055 388.558,354.100 388.032 C 355.145 387.505,356.000 386.966,356.000 386.835 C 356.000 386.703,356.585 386.338,357.300 386.025 C 358.015 385.711,359.077 384.947,359.660 384.327 C 360.244 383.707,360.937 383.200,361.200 383.200 C 361.463 383.200,362.183 382.660,362.800 382.000 C 363.417 381.340,364.133 380.800,364.392 380.800 C 364.651 380.800,365.554 380.080,366.400 379.200 C 367.246 378.320,368.143 377.600,368.395 377.600 C 368.993 377.600,377.600 368.993,377.600 368.395 C 377.600 368.143,378.320 367.246,379.200 366.400 C 380.080 365.554,380.800 364.651,380.800 364.392 C 380.800 364.133,381.340 363.417,382.000 362.800 C 382.660 362.183,383.200 361.463,383.200 361.200 C 383.200 360.937,383.707 360.244,384.327 359.660 C 384.947 359.077,385.711 358.015,386.025 357.300 C 386.338 356.585,386.703 356.000,386.835 356.000 C 386.966 356.000,387.505 355.145,388.032 354.100 C 388.558 353.055,389.083 352.110,389.198 352.000 C 389.888 351.337,391.600 347.523,391.600 346.646 C 391.600 346.071,391.780 345.600,392.000 345.600 C 392.220 345.600,392.400 345.240,392.400 344.800 C 392.400 344.360,392.580 344.000,392.800 344.000 C 393.020 344.000,393.200 343.640,393.200 343.200 C 393.200 342.760,393.380 342.400,393.600 342.400 C 393.820 342.400,394.000 341.950,394.000 341.400 C 394.000 340.850,394.180 340.400,394.400 340.400 C 394.620 340.400,394.800 340.051,394.800 339.624 C 394.800 339.197,394.980 338.736,395.200 338.600 C 395.420 338.464,395.600 338.001,395.600 337.571 C 395.600 337.141,395.758 336.477,395.951 336.095 C 396.540 334.928,397.200 332.592,397.200 331.672 C 397.200 331.192,397.380 330.800,397.600 330.800 C 397.820 330.800,398.000 330.080,398.000 329.200 C 398.000 328.320,398.180 327.600,398.400 327.600 C 398.620 327.600,398.800 326.700,398.800 325.600 C 398.800 324.500,398.950 323.600,399.133 323.600 C 399.721 323.600,399.716 324.334,399.884 204.800 C 400.043 91.721,399.955 76.133,399.159 76.625 C 398.962 76.747,398.800 75.847,398.800 74.624 C 398.800 73.401,398.620 72.400,398.400 72.400 C 398.180 72.400,398.000 71.680,398.000 70.800 C 398.000 69.920,397.840 69.200,397.644 69.200 C 397.448 69.200,397.186 68.615,397.063 67.900 C 396.542 64.888,396.290 64.000,395.955 64.000 C 395.760 64.000,395.600 63.471,395.600 62.824 C 395.600 62.177,395.420 61.536,395.200 61.400 C 394.980 61.264,394.800 60.803,394.800 60.376 C 394.800 59.949,394.620 59.600,394.400 59.600 C 394.180 59.600,394.000 59.150,394.000 58.600 C 394.000 58.050,393.820 57.600,393.600 57.600 C 393.380 57.600,393.200 57.240,393.200 56.800 C 393.200 56.360,393.020 56.000,392.800 56.000 C 392.580 56.000,392.400 55.640,392.400 55.200 C 392.400 54.760,392.220 54.400,392.000 54.400 C 391.780 54.400,391.600 53.929,391.600 53.354 C 391.600 52.477,389.888 48.663,389.198 48.000 C 389.083 47.890,388.558 46.945,388.032 45.900 C 387.505 44.855,386.923 44.000,386.737 44.000 C 386.552 44.000,386.400 43.730,386.400 43.400 C 386.400 43.070,386.220 42.800,386.000 42.800 C 385.780 42.800,385.600 42.512,385.600 42.160 C 385.600 41.809,385.069 41.025,384.419 40.418 C 383.770 39.811,383.185 39.066,383.119 38.761 C 383.054 38.457,382.505 37.729,381.900 37.143 C 381.295 36.558,380.800 35.867,380.800 35.608 C 380.800 35.349,380.080 34.446,379.200 33.600 C 378.320 32.754,377.600 31.879,377.600 31.654 C 377.600 31.102,368.924 22.400,368.374 22.400 C 368.134 22.400,367.246 21.680,366.400 20.800 C 365.554 19.920,364.651 19.200,364.392 19.200 C 364.133 19.200,363.417 18.660,362.800 18.000 C 362.183 17.340,361.463 16.800,361.200 16.800 C 360.937 16.800,360.244 16.293,359.660 15.673 C 359.077 15.053,358.015 14.289,357.300 13.975 C 356.585 13.662,356.000 13.297,356.000 13.165 C 356.000 13.034,355.145 12.495,354.100 11.968 C 353.055 11.442,352.110 10.918,352.000 10.805 C 351.325 10.112,347.511 8.400,346.641 8.400 C 346.068 8.400,345.600 8.220,345.600 8.000 C 345.600 7.780,345.240 7.600,344.800 7.600 C 344.360 7.600,344.000 7.420,344.000 7.200 C 344.000 6.980,343.640 6.800,343.200 6.800 C 342.760 6.800,342.400 6.620,342.400 6.400 C 342.400 6.180,341.950 6.000,341.400 6.000 C 340.850 6.000,340.400 5.820,340.400 5.600 C 340.400 5.380,340.051 5.200,339.624 5.200 C 339.197 5.200,338.736 5.020,338.600 4.800 C 338.464 4.580,338.001 4.400,337.571 4.400 C 337.141 4.400,336.477 4.242,336.095 4.049 C 334.928 3.460,332.592 2.800,331.672 2.800 C 331.192 2.800,330.800 2.620,330.800 2.400 C 330.800 2.180,330.080 2.000,329.200 2.000 C 328.320 2.000,327.600 1.820,327.600 1.600 C 327.600 1.380,326.715 1.200,325.633 1.200 C 324.416 1.200,323.603 1.010,323.500 0.700 C 323.345 0.234,87.579 -0.159,79.088 0.293 M210.539 70.463 C 211.084 80.603,210.847 129.463,210.251 129.958 C 209.863 130.279,206.704 130.382,199.551 130.307 L 189.400 130.200 189.297 98.400 C 189.240 80.910,189.279 66.375,189.384 66.100 C 189.530 65.718,192.014 65.600,199.926 65.600 L 210.277 65.600 210.539 70.463 M109.455 114.100 C 116.714 122.178,129.507 136.381,132.603 139.800 C 139.464 147.376,138.874 146.249,136.900 148.007 C 136.075 148.741,134.676 149.985,133.790 150.771 C 132.905 151.557,130.411 153.820,128.249 155.800 C 124.387 159.337,122.560 160.745,122.302 160.383 C 122.133 160.145,115.465 152.662,115.189 152.400 C 115.073 152.290,111.746 148.600,107.795 144.200 C 103.844 139.800,99.873 135.390,98.969 134.400 C 92.787 127.627,89.200 123.525,89.200 123.228 C 89.200 123.038,90.578 121.649,92.262 120.141 C 93.946 118.634,95.521 117.220,95.762 117.000 C 96.003 116.779,97.910 115.069,100.000 113.200 C 102.090 111.330,103.860 109.665,103.933 109.500 C 104.300 108.675,105.417 109.605,109.455 114.100 M302.600 115.636 C 306.560 119.174,310.055 122.315,310.366 122.615 C 310.898 123.128,308.750 126.100,305.607 129.200 C 305.272 129.530,303.550 131.420,301.781 133.400 C 295.163 140.804,284.208 153.007,284.006 153.200 C 283.891 153.310,282.380 154.975,280.649 156.900 C 276.954 161.010,277.213 160.952,274.373 158.289 C 273.148 157.140,269.773 154.073,266.873 151.474 C 263.973 148.874,261.600 146.593,261.600 146.405 C 261.600 146.080,262.559 144.985,270.184 136.600 C 271.985 134.620,275.065 131.200,277.028 129.000 C 282.301 123.093,283.317 121.965,284.200 121.038 C 284.640 120.577,287.218 117.724,289.929 114.699 C 292.641 111.675,294.981 109.200,295.129 109.201 C 295.278 109.201,298.640 112.097,302.600 115.636 " stroke="none" fill="#9b74db" fill-rule="evenodd"></path><path id="path1" d="M172.400 175.463 C 170.750 176.914,168.769 178.664,167.997 179.351 C 167.226 180.038,164.706 182.220,162.397 184.199 C 160.089 186.179,158.110 187.894,158.000 188.010 C 157.890 188.126,156.636 189.206,155.213 190.410 C 153.790 191.615,151.990 193.162,151.213 193.849 C 150.436 194.536,148.090 196.583,146.000 198.399 C 143.910 200.215,141.660 202.174,141.000 202.752 C 140.340 203.330,137.820 205.508,135.400 207.591 C 132.980 209.675,130.910 211.476,130.800 211.593 C 130.690 211.709,129.430 212.794,128.000 214.002 C 126.570 215.211,125.207 216.380,124.970 216.600 C 124.734 216.820,123.490 217.900,122.206 219.000 C 120.923 220.100,117.596 222.980,114.814 225.400 C 112.032 227.820,108.615 230.790,107.221 232.000 C 105.827 233.210,104.217 234.614,103.643 235.120 C 103.069 235.626,101.070 237.336,99.200 238.920 C 97.330 240.504,95.572 242.015,95.293 242.278 C 94.836 242.710,95.703 244.111,97.599 246.000 C 97.710 246.110,98.877 247.460,100.194 249.000 C 101.511 250.540,102.686 251.890,102.805 252.000 C 102.924 252.110,104.006 253.370,105.210 254.800 C 106.415 256.230,107.493 257.490,107.608 257.600 C 107.722 257.710,108.982 259.150,110.408 260.799 C 111.833 262.449,113.905 264.755,115.011 265.923 L 117.022 268.047 119.231 266.123 C 120.446 265.066,122.502 263.300,123.800 262.200 C 127.045 259.449,129.361 257.443,129.600 257.177 C 129.710 257.054,131.960 255.098,134.600 252.830 C 137.240 250.563,140.570 247.671,142.000 246.404 C 143.430 245.137,145.230 243.583,146.000 242.951 C 146.770 242.319,148.030 241.240,148.800 240.552 C 149.570 239.865,151.910 237.816,154.000 235.998 C 156.090 234.181,158.880 231.752,160.200 230.600 C 161.520 229.448,163.230 227.988,164.000 227.354 C 164.770 226.720,166.030 225.640,166.800 224.952 C 167.570 224.265,169.910 222.222,172.000 220.413 C 174.090 218.603,176.792 216.255,178.004 215.194 C 181.814 211.861,182.417 211.457,182.885 211.925 C 183.187 212.227,183.256 239.851,183.119 306.176 L 182.925 400.000 199.596 400.000 L 216.268 400.000 216.534 358.534 C 216.680 335.727,216.800 293.438,216.800 264.557 C 216.800 230.044,216.937 211.963,217.199 211.800 C 217.704 211.488,218.419 211.995,222.060 215.241 C 223.677 216.683,227.070 219.641,229.600 221.815 C 232.130 223.989,234.290 225.868,234.400 225.990 C 234.510 226.113,235.230 226.729,236.000 227.359 C 236.770 227.990,238.480 229.448,239.800 230.600 C 241.120 231.752,243.910 234.181,246.000 235.998 C 248.090 237.816,250.430 239.865,251.200 240.552 C 251.970 241.240,253.230 242.319,254.000 242.951 C 254.770 243.583,256.570 245.138,258.000 246.406 C 259.430 247.674,264.020 251.649,268.200 255.240 C 272.380 258.830,275.890 261.864,276.000 261.984 C 276.285 262.292,281.668 266.905,282.465 267.524 C 283.201 268.095,283.860 267.475,289.416 261.000 C 290.926 259.240,292.261 257.710,292.381 257.600 C 292.501 257.490,293.587 256.230,294.794 254.800 C 296.001 253.370,297.171 252.002,297.394 251.761 C 297.617 251.519,298.700 250.272,299.800 248.991 C 300.900 247.709,301.980 246.466,302.200 246.230 C 304.628 243.619,305.190 242.734,304.707 242.278 C 304.428 242.015,302.670 240.504,300.800 238.920 C 298.930 237.336,296.931 235.626,296.357 235.120 C 295.783 234.614,294.173 233.210,292.779 232.000 C 291.385 230.790,287.968 227.820,285.186 225.400 C 282.404 222.980,279.072 220.100,277.781 219.000 C 275.090 216.707,268.867 211.293,266.800 209.448 C 266.030 208.760,264.770 207.681,264.000 207.048 C 263.230 206.416,261.520 204.945,260.200 203.780 C 258.880 202.615,256.090 200.182,254.000 198.373 C 251.910 196.565,249.570 194.525,248.800 193.841 C 248.030 193.157,246.770 192.080,246.000 191.446 C 245.230 190.812,243.520 189.352,242.200 188.200 C 240.880 187.048,238.090 184.619,236.000 182.802 C 233.910 180.984,231.569 178.936,230.799 178.249 C 230.028 177.562,228.293 176.055,226.944 174.900 L 224.491 172.800 199.946 172.813 L 175.400 172.825 172.400 175.463 " stroke="none" fill="#fbfbfb" fill-rule="evenodd"></path><path id="path2" d="M189.384 66.100 C 189.279 66.375,189.240 80.910,189.297 98.400 L 189.400 130.200 199.551 130.307 C 206.704 130.382,209.863 130.279,210.251 129.958 C 210.847 129.463,211.084 80.603,210.539 70.463 L 210.277 65.600 199.926 65.600 C 192.014 65.600,189.530 65.718,189.384 66.100 M103.933 109.500 C 103.860 109.665,102.090 111.330,100.000 113.200 C 97.910 115.069,96.003 116.779,95.762 117.000 C 95.521 117.220,93.946 118.634,92.262 120.141 C 90.578 121.649,89.200 123.038,89.200 123.228 C 89.200 123.525,92.787 127.627,98.969 134.400 C 99.873 135.390,103.844 139.800,107.795 144.200 C 111.746 148.600,115.073 152.290,115.189 152.400 C 115.465 152.662,122.133 160.145,122.302 160.383 C 122.560 160.745,124.387 159.337,128.249 155.800 C 130.411 153.820,132.905 151.557,133.790 150.771 C 139.261 145.915,138.850 146.720,136.941 144.600 C 136.149 143.720,134.197 141.560,132.603 139.800 C 129.507 136.381,116.714 122.178,109.455 114.100 C 105.417 109.605,104.300 108.675,103.933 109.500 M289.929 114.699 C 287.218 117.724,284.640 120.577,284.200 121.038 C 283.317 121.965,282.301 123.093,277.028 129.000 C 275.065 131.200,271.985 134.620,270.184 136.600 C 262.559 144.985,261.600 146.080,261.600 146.405 C 261.600 146.593,263.973 148.874,266.873 151.474 C 269.773 154.073,273.148 157.140,274.373 158.289 C 277.213 160.952,276.954 161.010,280.649 156.900 C 282.380 154.975,283.891 153.310,284.006 153.200 C 284.208 153.007,295.163 140.804,301.781 133.400 C 303.550 131.420,305.272 129.530,305.607 129.200 C 308.750 126.100,310.898 123.128,310.366 122.615 C 308.094 120.425,295.345 109.202,295.129 109.201 C 294.981 109.200,292.641 111.675,289.929 114.699 " stroke="none" fill="#0ef2bc" fill-rule="evenodd"></path><path id="path3" d="M173.356 174.094 C 172.280 175.026,171.310 175.887,171.200 176.006 C 171.090 176.126,168.390 178.467,165.200 181.209 C 162.010 183.952,159.310 186.292,159.200 186.411 C 159.013 186.612,148.426 195.789,145.829 198.000 C 145.184 198.550,143.734 199.810,142.607 200.800 C 141.481 201.790,138.064 204.760,135.013 207.400 C 131.963 210.040,129.272 212.381,129.034 212.603 C 128.795 212.824,127.970 213.522,127.200 214.153 C 126.430 214.784,124.630 216.331,123.200 217.591 C 121.770 218.851,119.686 220.673,118.568 221.641 C 117.450 222.608,115.397 224.390,114.004 225.600 C 112.612 226.810,111.096 228.127,110.636 228.527 C 110.176 228.926,108.763 230.159,107.495 231.267 C 106.226 232.375,104.412 233.938,103.463 234.741 C 99.926 237.731,94.400 242.508,94.400 242.575 C 94.400 242.779,96.519 245.469,97.678 246.737 C 98.413 247.542,101.349 250.900,104.201 254.200 C 109.735 260.603,111.164 262.250,111.800 262.956 C 112.020 263.200,113.163 264.525,114.340 265.900 C 115.516 267.275,116.631 268.400,116.817 268.400 C 117.097 268.400,122.150 264.343,122.800 263.597 C 123.004 263.362,126.140 260.647,139.200 249.397 C 143.270 245.891,146.690 242.921,146.800 242.797 C 146.910 242.672,149.610 240.329,152.800 237.590 C 155.990 234.851,159.140 232.133,159.800 231.551 C 161.364 230.170,167.993 224.412,170.800 221.997 C 172.010 220.955,175.102 218.280,177.671 216.052 C 180.240 213.823,182.445 212.000,182.571 212.000 C 182.697 212.000,182.845 245.795,182.899 287.100 L 182.998 362.200 183.100 287.221 C 183.163 241.309,183.058 212.098,182.830 211.870 C 182.429 211.469,181.647 212.007,178.004 215.194 C 176.792 216.255,174.090 218.603,172.000 220.413 C 169.910 222.222,167.570 224.265,166.800 224.952 C 166.030 225.640,164.770 226.720,164.000 227.354 C 163.230 227.988,161.520 229.448,160.200 230.600 C 158.880 231.752,156.090 234.181,154.000 235.998 C 151.910 237.816,149.570 239.865,148.800 240.552 C 148.030 241.240,146.770 242.319,146.000 242.951 C 145.230 243.583,143.430 245.137,142.000 246.404 C 140.570 247.671,137.240 250.563,134.600 252.830 C 131.960 255.098,129.710 257.054,129.600 257.177 C 129.361 257.443,127.045 259.449,123.800 262.200 C 122.502 263.300,120.446 265.066,119.231 266.123 L 117.022 268.047 115.011 265.923 C 113.905 264.755,111.833 262.449,110.408 260.799 C 108.982 259.150,107.722 257.710,107.608 257.600 C 107.493 257.490,106.415 256.230,105.210 254.800 C 104.006 253.370,102.924 252.110,102.805 252.000 C 102.686 251.890,101.511 250.540,100.194 249.000 C 98.877 247.460,97.710 246.110,97.599 246.000 C 95.703 244.111,94.836 242.710,95.293 242.278 C 95.572 242.015,97.330 240.504,99.200 238.920 C 101.070 237.336,103.069 235.626,103.643 235.120 C 104.217 234.614,105.827 233.210,107.221 232.000 C 108.615 230.790,112.032 227.820,114.814 225.400 C 117.596 222.980,120.923 220.100,122.206 219.000 C 123.490 217.900,124.734 216.820,124.970 216.600 C 125.207 216.380,126.570 215.211,128.000 214.002 C 129.430 212.794,130.690 211.709,130.800 211.593 C 130.910 211.476,132.980 209.675,135.400 207.591 C 137.820 205.508,140.340 203.330,141.000 202.752 C 141.660 202.174,143.910 200.215,146.000 198.399 C 148.090 196.583,150.436 194.536,151.213 193.849 C 151.990 193.162,153.790 191.615,155.213 190.410 C 156.636 189.206,157.890 188.126,158.000 188.010 C 158.110 187.894,160.090 186.179,162.400 184.200 C 164.710 182.221,166.690 180.507,166.800 180.392 C 166.910 180.276,168.910 178.521,171.245 176.491 L 175.491 172.800 199.991 172.800 L 224.491 172.800 226.944 174.900 C 228.293 176.055,230.028 177.562,230.799 178.249 C 231.569 178.936,233.910 180.984,236.000 182.802 C 238.090 184.619,240.880 187.048,242.200 188.200 C 243.520 189.352,245.230 190.812,246.000 191.446 C 246.770 192.080,248.030 193.155,248.800 193.836 C 252.390 197.012,257.478 201.394,258.200 201.933 C 259.164 202.651,255.861 199.415,254.185 197.998 C 253.016 197.010,242.129 187.589,239.800 185.550 C 236.016 182.238,227.885 175.185,226.369 173.901 L 224.600 172.403 199.956 172.401 L 175.313 172.400 173.356 174.094 M259.200 202.554 C 259.200 202.926,259.525 203.239,262.787 206.006 C 264.210 207.213,266.010 208.762,266.787 209.449 C 269.375 211.736,275.404 216.974,277.781 219.000 C 279.072 220.100,282.404 222.980,285.186 225.400 C 287.968 227.820,291.385 230.790,292.779 232.000 C 294.173 233.210,295.783 234.614,296.357 235.120 C 296.931 235.626,298.930 237.336,300.800 238.920 C 302.670 240.504,304.428 242.015,304.707 242.278 C 305.190 242.734,304.628 243.619,302.200 246.230 C 301.980 246.466,300.900 247.709,299.800 248.991 C 298.700 250.272,297.617 251.519,297.394 251.761 C 297.171 252.002,296.001 253.370,294.794 254.800 C 293.587 256.230,292.501 257.490,292.381 257.600 C 292.261 257.710,290.926 259.240,289.416 261.000 C 283.860 267.475,283.201 268.095,282.465 267.524 C 281.668 266.905,276.285 262.292,276.000 261.984 C 275.890 261.864,272.380 258.830,268.200 255.240 C 264.020 251.649,259.430 247.674,258.000 246.406 C 256.570 245.138,254.770 243.583,254.000 242.951 C 253.230 242.319,251.970 241.240,251.200 240.552 C 250.430 239.865,248.090 237.816,246.000 235.998 C 243.910 234.181,241.120 231.752,239.800 230.600 C 238.480 229.448,236.770 227.990,236.000 227.359 C 235.230 226.729,234.510 226.113,234.400 225.990 C 234.290 225.868,232.130 223.989,229.600 221.815 C 227.070 219.641,223.677 216.683,222.060 215.241 C 218.371 211.951,217.612 211.420,217.217 211.854 C 216.747 212.368,216.348 400.000,216.817 400.000 C 217.060 400.000,217.200 365.675,217.200 306.000 C 217.200 254.300,217.304 212.000,217.432 212.000 C 217.559 212.000,219.764 213.819,222.332 216.042 C 224.899 218.265,228.076 221.010,229.392 222.142 C 230.708 223.274,233.332 225.550,235.223 227.200 C 237.114 228.850,241.163 232.360,244.221 235.000 C 247.279 237.640,251.225 241.063,252.991 242.606 C 256.108 245.331,263.617 251.828,272.600 259.573 C 275.020 261.660,277.090 263.470,277.200 263.597 C 277.842 264.334,282.901 268.400,283.177 268.400 C 283.458 268.400,285.345 266.333,289.750 261.200 C 290.480 260.350,296.265 253.678,299.596 249.844 C 300.148 249.209,300.783 248.489,301.006 248.244 C 301.229 248.000,302.396 246.658,303.599 245.261 L 305.787 242.723 304.570 241.661 C 303.900 241.078,301.573 239.070,299.399 237.200 C 297.226 235.330,294.524 232.990,293.395 232.000 C 292.267 231.010,290.205 229.216,288.814 228.014 C 287.423 226.811,286.085 225.641,285.842 225.414 C 285.599 225.186,283.510 223.386,281.200 221.414 C 278.890 219.442,276.910 217.728,276.800 217.604 C 276.690 217.480,275.436 216.394,274.013 215.190 C 272.590 213.985,270.790 212.443,270.013 211.763 C 269.236 211.082,266.980 209.118,265.000 207.397 C 263.020 205.677,260.905 203.815,260.300 203.260 C 259.695 202.705,259.200 202.387,259.200 202.554 M182.540 396.800 C 182.540 398.670,182.609 399.435,182.693 398.500 C 182.777 397.565,182.777 396.035,182.693 395.100 C 182.609 394.165,182.540 394.930,182.540 396.800 " stroke="none" fill="#ccbcec" fill-rule="evenodd"></path><path id="path4" d="M187.700 172.300 C 194.465 172.361,205.535 172.361,212.300 172.300 C 219.065 172.238,213.530 172.188,200.000 172.188 C 186.470 172.188,180.935 172.238,187.700 172.300 M173.314 173.684 C 172.481 174.391,171.725 175.021,171.633 175.084 C 171.542 175.148,171.542 175.272,171.633 175.360 C 171.725 175.448,172.588 174.818,173.551 173.960 C 175.655 172.087,175.462 171.862,173.314 173.684 M226.399 173.919 C 227.388 174.808,228.266 175.467,228.349 175.384 C 228.522 175.212,226.209 173.178,225.241 172.651 C 224.888 172.459,225.410 173.030,226.399 173.919 M169.161 177.300 C 166.064 179.980,165.130 180.863,165.258 180.989 C 165.336 181.066,166.570 180.071,168.000 178.778 C 170.459 176.554,171.385 175.376,169.161 177.300 M232.400 179.114 C 233.610 180.216,234.664 181.057,234.742 180.984 C 234.908 180.827,232.264 178.451,231.039 177.655 C 230.577 177.355,231.190 178.012,232.400 179.114 M161.877 183.607 C 160.379 184.923,159.299 185.997,159.477 185.993 C 159.830 185.986,165.126 181.241,164.800 181.224 C 164.690 181.219,163.375 182.291,161.877 183.607 M237.772 183.693 C 239.107 184.955,240.331 185.990,240.491 185.993 C 240.651 185.997,239.931 185.242,238.891 184.316 C 235.835 181.594,235.139 181.208,237.772 183.693 M157.400 187.467 C 153.969 190.446,152.706 191.638,152.846 191.763 C 152.930 191.839,154.395 190.664,156.101 189.151 C 157.806 187.638,159.066 186.406,158.901 186.413 C 158.735 186.420,158.060 186.894,157.400 187.467 M244.200 189.343 C 245.520 190.567,246.758 191.576,246.950 191.584 C 247.400 191.604,244.568 188.982,243.000 187.926 C 242.340 187.481,242.880 188.119,244.200 189.343 M151.375 192.708 C 150.949 193.098,148.530 195.205,146.000 197.391 C 143.470 199.578,141.310 201.464,141.200 201.583 C 141.090 201.702,139.830 202.787,138.400 203.994 C 135.213 206.684,134.800 207.074,134.800 207.397 C 134.800 207.536,136.089 206.514,137.664 205.125 C 141.515 201.729,144.151 199.434,147.223 196.800 C 150.797 193.737,152.640 192.024,152.375 192.011 C 152.252 192.005,151.802 192.319,151.375 192.708 M248.985 193.400 C 249.659 194.060,251.366 195.590,252.777 196.800 C 255.849 199.434,258.485 201.729,262.336 205.125 C 263.911 206.514,265.200 207.536,265.200 207.397 C 265.200 207.074,264.787 206.684,261.600 203.994 C 260.170 202.787,258.910 201.702,258.800 201.583 C 258.446 201.198,249.428 193.472,248.579 192.825 C 248.128 192.481,248.311 192.740,248.985 193.400 M133.035 208.603 C 132.395 209.153,131.958 209.691,132.065 209.798 C 132.171 209.904,132.774 209.454,133.404 208.796 C 134.799 207.339,134.616 207.243,133.035 208.603 M268.000 209.915 C 269.430 211.243,270.664 212.266,270.742 212.189 C 270.820 212.112,270.204 211.453,269.373 210.725 C 268.542 209.996,267.667 209.220,267.429 209.000 C 267.191 208.780,266.638 208.352,266.198 208.050 C 265.759 207.747,266.570 208.586,268.000 209.915 M130.254 211.033 C 129.623 211.587,129.187 212.120,129.283 212.216 C 129.379 212.313,129.974 211.854,130.604 211.196 C 131.996 209.743,131.816 209.659,130.254 211.033 M179.600 214.457 C 177.318 216.591,177.256 216.683,179.099 215.208 C 180.253 214.284,181.299 213.364,181.422 213.164 C 182.476 211.459,182.516 215.485,182.348 306.500 C 182.253 358.035,182.296 398.490,182.443 396.400 C 182.815 391.121,182.870 211.997,182.500 212.013 C 182.335 212.021,181.030 213.120,179.600 214.457 M217.299 306.100 L 217.398 400.200 217.500 306.500 C 217.563 248.439,217.745 212.800,217.977 212.800 C 218.184 212.800,218.454 212.964,218.578 213.164 C 218.701 213.364,219.747 214.284,220.901 215.208 C 222.744 216.683,222.682 216.591,220.400 214.457 C 218.970 213.120,217.665 212.021,217.500 212.013 C 217.335 212.006,217.245 254.345,217.299 306.100 M127.454 213.455 C 126.823 213.997,126.373 214.506,126.454 214.586 C 126.534 214.666,127.116 214.288,127.746 213.745 C 128.377 213.203,128.827 212.694,128.746 212.614 C 128.666 212.534,128.084 212.912,127.454 213.455 M271.228 212.630 C 271.243 212.834,272.361 213.900,273.712 215.000 C 278.072 218.550,277.214 217.509,272.100 213.046 C 271.605 212.614,271.212 212.427,271.228 212.630 M122.959 217.319 C 117.051 222.478,115.499 223.808,115.067 224.078 C 114.823 224.231,114.712 224.446,114.821 224.554 C 115.007 224.741,121.073 219.628,124.600 216.313 C 127.101 213.962,126.101 214.575,122.959 217.319 M223.229 217.100 C 223.245 217.265,223.920 217.930,224.729 218.579 L 226.200 219.757 224.822 218.279 C 223.397 216.751,223.180 216.590,223.229 217.100 M174.787 218.511 C 174.010 219.220,172.676 220.385,171.822 221.101 C 170.968 221.817,170.343 222.473,170.434 222.561 C 170.525 222.648,172.000 221.477,173.711 219.960 C 175.422 218.442,176.682 217.205,176.511 217.211 C 176.340 217.217,175.564 217.802,174.787 218.511 M280.876 221.158 C 283.144 223.115,285.072 224.648,285.161 224.564 C 285.250 224.480,284.841 224.033,284.254 223.571 C 283.666 223.109,282.310 221.934,281.240 220.960 C 278.855 218.790,277.358 217.600,277.013 217.600 C 276.869 217.600,278.608 219.201,280.876 221.158 M226.419 219.830 C 226.430 220.034,227.375 220.966,228.519 221.902 C 229.664 222.838,231.141 224.098,231.803 224.702 C 232.464 225.306,233.364 226.049,233.803 226.354 C 234.669 226.956,232.369 224.724,229.800 222.470 C 228.920 221.698,227.795 220.705,227.300 220.264 C 226.805 219.822,226.409 219.627,226.419 219.830 M167.600 224.849 C 166.390 225.971,165.760 226.644,166.200 226.344 C 167.203 225.662,170.270 222.809,170.000 222.809 C 169.890 222.809,168.810 223.727,167.600 224.849 M112.200 226.669 C 111.540 227.244,110.396 228.239,109.658 228.881 C 108.920 229.524,108.385 230.118,108.470 230.203 C 108.554 230.287,109.788 229.293,111.212 227.993 C 113.769 225.658,114.523 224.648,112.200 226.669 M288.788 227.937 C 290.212 229.268,291.446 230.287,291.530 230.203 C 291.693 230.041,289.942 228.441,287.600 226.611 C 286.830 226.009,287.365 226.606,288.788 227.937 M164.614 227.177 C 164.468 227.413,163.096 228.685,161.564 230.003 C 160.033 231.322,158.905 232.400,159.059 232.400 C 159.212 232.400,160.432 231.458,161.769 230.306 C 165.038 227.490,165.329 227.196,165.088 226.954 C 164.974 226.840,164.761 226.940,164.614 227.177 M234.800 226.974 C 234.800 227.325,235.156 227.666,238.390 230.406 C 239.814 231.613,241.704 233.253,242.590 234.052 C 245.247 236.448,249.600 240.063,249.600 239.873 C 249.600 239.775,247.130 237.559,244.111 234.947 C 241.091 232.336,237.761 229.410,236.711 228.445 C 235.660 227.480,234.800 226.818,234.800 226.974 M102.949 234.700 C 100.741 236.625,98.229 238.809,97.367 239.552 C 96.505 240.296,96.008 240.836,96.263 240.752 C 96.993 240.512,107.613 231.232,107.182 231.211 C 107.062 231.205,105.157 232.775,102.949 234.700 M294.019 232.446 C 296.534 234.847,303.260 240.595,303.737 240.752 C 303.992 240.836,303.493 240.296,302.628 239.552 C 301.763 238.809,299.507 236.850,297.615 235.200 C 293.765 231.844,291.855 230.381,294.019 232.446 M155.778 235.113 C 153.155 237.591,153.835 237.206,156.891 234.484 C 157.931 233.558,158.651 232.806,158.491 232.813 C 158.331 232.821,157.110 233.856,155.778 235.113 M150.000 240.085 C 148.570 241.414,147.759 242.253,148.198 241.950 C 148.638 241.648,149.191 241.220,149.429 241.000 C 149.667 240.780,150.542 240.004,151.373 239.275 C 152.204 238.547,152.820 237.888,152.742 237.811 C 152.664 237.734,151.430 238.757,150.000 240.085 M250.000 240.229 C 250.000 240.498,250.690 241.170,251.802 241.985 C 252.241 242.306,252.071 241.991,251.425 241.285 C 250.240 239.989,250.000 239.811,250.000 240.229 M252.800 242.625 C 252.800 242.913,253.543 243.607,256.900 246.460 C 259.863 248.978,259.132 248.033,255.800 245.039 C 254.150 243.557,252.800 242.470,252.800 242.625 M94.413 243.056 C 94.431 243.544,95.557 244.976,95.761 244.771 C 95.855 244.677,95.587 244.175,95.166 243.656 C 94.745 243.136,94.406 242.866,94.413 243.056 M144.000 245.286 C 142.790 246.388,142.177 247.045,142.639 246.745 C 143.864 245.949,146.508 243.573,146.342 243.416 C 146.264 243.343,145.210 244.184,144.000 245.286 M97.030 246.388 C 101.280 251.572,106.400 257.357,106.400 256.974 C 106.400 256.647,99.707 248.893,97.608 246.788 C 96.834 246.011,96.573 245.831,97.030 246.388 M301.536 247.655 C 300.361 249.005,299.218 250.310,298.997 250.555 C 296.110 253.739,293.600 256.735,293.600 256.996 C 293.600 257.175,293.972 256.890,294.427 256.361 C 294.881 255.833,296.114 254.410,297.167 253.200 C 302.149 247.475,304.055 245.200,303.871 245.200 C 303.761 245.200,302.710 246.305,301.536 247.655 M135.611 252.454 C 131.147 256.349,127.788 259.510,130.400 257.359 C 136.684 252.184,140.956 248.416,140.748 248.232 C 140.666 248.161,138.355 250.061,135.611 252.454 M259.222 248.281 C 259.251 248.695,270.400 258.266,270.400 257.876 C 270.400 257.776,267.880 255.505,264.800 252.828 C 261.720 250.152,259.210 248.105,259.222 248.281 M107.811 258.800 C 109.641 261.142,111.241 262.893,111.403 262.730 C 111.487 262.646,110.468 261.412,109.137 259.988 C 107.806 258.565,107.209 258.030,107.811 258.800 M126.200 260.648 C 124.789 261.959,124.459 262.376,125.400 261.661 C 127.774 259.858,129.373 258.399,128.962 258.410 C 128.763 258.415,127.520 259.422,126.200 260.648 M272.616 260.100 C 273.659 261.035,274.893 262.039,275.356 262.331 C 275.820 262.623,275.120 261.862,273.800 260.640 C 272.480 259.419,271.247 258.415,271.059 258.410 C 270.872 258.404,271.572 259.165,272.616 260.100 M290.298 260.500 C 289.293 261.655,288.534 262.664,288.611 262.742 C 288.755 262.888,290.993 260.453,291.923 259.139 C 292.910 257.744,292.124 258.402,290.298 260.500 M285.785 265.800 C 283.039 268.927,283.434 268.899,280.252 266.200 C 278.826 264.990,277.541 264.000,277.397 264.000 C 277.092 264.000,280.973 267.393,282.302 268.287 C 283.034 268.780,283.318 268.800,283.812 268.390 C 284.676 267.673,288.521 263.200,288.273 263.200 C 288.160 263.200,287.040 264.370,285.785 265.800 M113.187 264.982 C 116.256 269.261,116.653 269.343,120.064 266.400 C 121.594 265.080,122.725 264.000,122.577 264.000 C 122.429 264.000,121.294 264.869,120.054 265.932 C 116.672 268.829,116.911 268.811,114.628 266.350 C 113.513 265.147,112.864 264.532,113.187 264.982 " stroke="none" fill="#ae8ee4" fill-rule="evenodd"></path></g></svg>